[img]http://img198.imageshack.us/img198/5035/pussboots.jpg[/img]
[code]
Puss in Boots 2011 DVDSCR XviD AC3-26K

Imdb: 
http://www.imdb.com/title/tt0448694/

Plot:
A story about the events leading up to the sword fighting cat's meeting with Shrek and his friends.

Sources:
Audio: MiSTERE /BIDA(SYNC) THNXS
Video: El.Gato.con.Botas.DvdScr.Cast.by.zafiro219  thhnxs man

Notes:
Not bad for a dvdscr but is at 4.3 :/... added few filters to video to make it look nice :)
enjoy ...

Greetz:
Xtreme Encode|FYA|ILLUMANTI|CM8|RX|VISION|HDSCENE|NIGHTMAREZ|xTriLL|DTRG|CRYS|REMIXHD|BIDA|RX|REFILL| INSPiRAL|SIC
To all the people who have helped me :P you know who you are

Anything to offer email us @: 26k@hushmail.me

Video
ID                                       : 0
Format                                   : MPEG-4 Visual
Format profile                           : Advanced Simple@L5
Format settings, BVOP                    : 2
Format settings, QPel                    : No
Format settings, GMC                     : No warppoints
Format settings, Matrix                  : Default (H.263)
Codec ID                                 : XVID
Codec ID/Hint                            : XviD
Duration                                 : 1h 30mn
Bit rate                                 : 1 500 Kbps
Width                                    : 720 pixels
Height                                   : 540 pixels
Display aspect ratio                     : 4:3
Frame rate                               : 29.970 fps
Color space                              : YUV
Chroma subsampling                       : 4:2:0
Bit depth                                : 8 bits
Scan type                                : Progressive
Compression mode                         : Lossy
Bits/(Pixel*Frame)                       : 0.129
Stream size                              : 969 MiB (88%)
Writing library                          : XviD 63

Audio
ID                                       : 1
Format                                   : AC-3
Format/Info                              : Audio Coding 3
Mode extension                           : CM (complete main)
Codec ID                                 : 2000
Duration                                 : 1h 30mn
Bit rate mode                            : Constant
Bit rate                                 : 192 Kbps
Channel(s)                               : 2 channels
Channel positions                        : Front: L R
Sampling rate                            : 44.1 KHz
Bit depth                                : 16 bits
Compression mode                         : Lossy
Stream size                              : 124 MiB (11%)
Alignment                                : Aligned on interleaves
Interleave, duration                     : 35 ms (1.04 video frame)

[/code]
Screens:
[img]http://img707.imageshack.us/img707/694/vlcsnap2012011016h44m01.png[/img]
[img]http://img684.imageshack.us/img684/7325/vlcsnap2012011016h44m05.png[/img]
[img]http://img809.imageshack.us/img809/6907/vlcsnap2012011016h44m09.png[/img]
[img]http://img840.imageshack.us/img840/758/vlcsnap2012011016h44m14.png[/img]
[img]http://img706.imageshack.us/img706/7054/vlcsnap2012011016h44m18.png[/img]
[img]http://img848.imageshack.us/img848/1894/vlcsnap2012011016h44m30.png[/img]

[img]http://img851.imageshack.us/img851/5503/26ks.jpg[/img]#
Thank you smallz for banner!